<svg width="156" height="85" viewBox="0 0 156 85" fill="none" xmlns="http://www.w3.org/2000/svg">
<path fill-rule="evenodd" clip-rule="evenodd" d="M21.1464 46.1948C21.1464 46.1948 21.1464 51.513 24.9074 55.2798C26.7023 57.0784 28.9894 58.3035 31.4794 58.8004C33.9695 59.2972 36.5507 59.0433 38.8968 58.0709C41.2428 57.0985 43.2482 55.4511 44.6595 53.3372C46.0707 51.2233 46.8244 48.7377 46.8252 46.1948C46.8301 50.0806 46.5151 53.9601 45.8833 57.794C44.8568 63.0876 41.1462 71.9004 33.991 71.9004C26.8359 71.9004 23.9775 62.8463 22.409 58.1068C20.8404 53.3673 21.1464 46.1948 21.1464 46.1948Z" fill="url(#paint0_linear_25_1334)"/>
<path fill-rule="evenodd" clip-rule="evenodd" d="M33.9791 20.3734C33.9791 20.3734 46.8111 21.8406 46.8111 46.1948C46.8111 70.549 33.9791 71.8991 33.9791 71.8991C37.4008 72.0172 40.8122 71.4585 44.0182 70.2551C47.2241 69.0517 50.1618 67.2272 52.6631 64.8858C56.7847 61.079 59.9534 55.2075 59.9646 46.1436C59.9758 37.0797 56.8667 31.0784 52.6435 27.367C43.2112 19.1194 33.9791 20.3734 33.9791 20.3734Z" fill="url(#paint1_linear_25_1334)"/>
<path fill-rule="evenodd" clip-rule="evenodd" d="M31.4765 13.3735C35.5141 13.2536 43.2027 13.1631 46.4883 13.1631C49.7738 13.1631 59.9532 13.5047 59.9532 23.5554V45.5658C59.9532 45.5658 59.643 26.9358 43.508 26.9358C27.3731 26.9358 26.9067 13.5068 31.4765 13.3735Z" fill="#355070"/>
<path fill-rule="evenodd" clip-rule="evenodd" d="M15.6684 64.4138C8 56.2638 8.31161 49.6825 8 46.1969C8 39.2987 24.0272 43.7949 23.3354 46.1969C19.267 60.3013 28.0271 71.9012 33.9791 71.9012C34.171 71.9945 23.3354 72.566 15.6684 64.4138Z" fill="#355070"/>
<path d="M20.3342 38.3218C23.7908 38.3218 26.593 35.5153 26.593 32.0534C26.593 28.5914 23.7908 25.7849 20.3342 25.7849C16.8776 25.7849 14.0754 28.5914 14.0754 32.0534C14.0754 35.5153 16.8776 38.3218 20.3342 38.3218Z" fill="#355070"/>
<path fill-rule="evenodd" clip-rule="evenodd" d="M148 33.301C148 30.2937 146.958 28.2774 144.903 26.9617C143.372 25.9869 136.496 25.7631 136.496 25.7631C136.37 25.759 136.245 25.7802 136.128 25.8254C136.011 25.8706 135.904 25.939 135.814 26.0264C135.724 26.1138 135.652 26.2185 135.603 26.3342C135.554 26.45 135.529 26.5744 135.529 26.7001V61.4073C135.529 64.4146 136.571 66.4309 138.626 67.7466C140.157 68.7214 147.033 68.9451 147.033 68.9451C147.158 68.9493 147.283 68.9281 147.401 68.8829C147.518 68.8376 147.625 68.7693 147.715 68.6819C147.805 68.5945 147.877 68.4898 147.926 68.374C147.975 68.2583 148 68.1339 148 68.0081V33.301Z" fill="#355070"/>
<path fill-rule="evenodd" clip-rule="evenodd" d="M115.526 27.2008C113.416 28.5081 112.429 30.5069 112.429 33.498V37.9542C112.44 41.2673 112.453 44.6947 112.354 48.0764C112.255 51.4582 112.08 58.442 111.486 61.9521C110.794 66.036 106.778 74.2611 104.867 76.3552C104.867 77.7733 112.874 76.7655 116.815 74.1811C120.306 71.8857 122.594 68.3644 124.014 63.1002C124.678 60.614 125.211 54.4894 125.218 50.827C125.233 43.426 125.218 26.6741 125.218 26.6741C125.217 26.5457 125.191 26.4186 125.14 26.3008C125.089 26.183 125.014 26.077 124.92 25.9893C124.826 25.9017 124.716 25.8342 124.595 25.7912C124.474 25.7482 124.346 25.7305 124.218 25.7393C124.218 25.7393 117.093 26.2225 115.535 27.191L115.526 27.2008Z" fill="#355070"/>
<path fill-rule="evenodd" clip-rule="evenodd" d="M98.3617 29.9858C99.9425 31.5241 101.133 33.419 101.833 35.5122C102.649 38.0427 102.982 40.7047 102.813 43.3586L101.953 65.3907C101.936 65.8601 101.764 66.3106 101.464 66.6716C101.164 67.0325 100.753 67.2836 100.295 67.3853C98.5718 67.7689 96.574 68.1477 94.3633 68.5074C91.9668 68.8882 89.5437 69.0758 87.1172 69.0685C86.4534 69.0685 85.8049 69.0573 85.1439 69.0327C82.5558 68.9494 79.9838 68.5909 77.4713 67.9632C75.3441 67.4472 73.3347 66.5296 71.5507 65.2596C69.9227 64.0578 68.6313 62.4561 67.8009 60.6091C66.8852 58.4344 66.4926 56.0746 66.6546 53.72C66.6584 51.4094 67.3384 49.1506 68.6104 47.2229C69.7873 45.5638 71.3392 44.207 73.1396 43.2633C75.0091 42.2934 77.0288 41.6468 79.1134 41.3507C80.7943 41.0991 82.4913 40.9709 84.1909 40.9671C84.611 40.9671 85.0249 40.9671 85.4275 40.9917L90.2641 41.1824C90.2632 40.3509 90.0199 39.5377 89.5638 38.8428C89.112 38.1861 88.5035 37.6529 87.7936 37.2915C87.0221 36.9013 86.1979 36.6258 85.347 36.4737C84.4253 36.3082 83.493 36.2091 82.5572 36.1771C81.0488 36.1382 79.5398 36.2264 78.0462 36.4408C76.7884 36.6109 75.542 36.8572 74.3139 37.1786C73.8306 37.304 73.3184 37.2528 72.8693 37.0343C72.4202 36.8159 72.0635 36.4443 71.863 35.9863C71.7195 35.663 71.583 35.3502 71.4604 35.0535C70.9723 33.4955 70.6293 31.8955 70.436 30.274C70.4135 29.8708 70.4002 29.4408 70.3981 28.9843C70.3955 28.5143 70.5494 28.0569 70.8355 27.6845C71.1217 27.312 71.5237 27.0458 71.9779 26.928C74.04 26.3923 76.1333 25.9853 78.2458 25.7091C80.5372 25.3958 82.8503 25.2705 85.1621 25.3346C87.7258 25.4055 90.266 25.8458 92.7044 26.6419C94.8112 27.3298 96.7421 28.4712 98.3617 29.9858ZM90.1135 59.0381L90.4896 49.35L85.4366 49.1572C85.2664 49.1572 85.0935 49.146 84.9254 49.146C83.3454 49.1055 81.7826 49.4824 80.3941 50.2386C79.714 50.5888 79.1414 51.117 78.737 51.767C78.3325 52.417 78.1115 53.1646 78.0973 53.9304C78.0059 54.9355 78.2561 55.942 78.8074 56.7869C79.3055 57.4798 79.9677 58.0379 80.7345 58.4112C81.504 58.787 82.3239 59.049 83.1685 59.1889C83.9445 59.3259 84.7286 59.4126 85.5157 59.4484C86.2335 59.4583 86.9513 59.4309 87.6662 59.3664C88.3652 59.3239 89.0611 59.2396 89.7501 59.1139L90.1135 59.0381Z" fill="#355070"/>
<path d="M118.902 20.5018C122.349 20.5018 125.143 17.7032 125.143 14.2509C125.143 10.7986 122.349 8 118.902 8C115.455 8 112.661 10.7986 112.661 14.2509C112.661 17.7032 115.455 20.5018 118.902 20.5018Z" fill="#355070"/>
<path d="M141.682 20.5018C145.129 20.5018 147.923 17.7032 147.923 14.2509C147.923 10.7986 145.129 8 141.682 8C138.235 8 135.44 10.7986 135.44 14.2509C135.44 17.7032 138.235 20.5018 141.682 20.5018Z" fill="#355070"/>
<defs>
<linearGradient id="paint0_linear_25_1334" x1="21.7135" y1="55.3203" x2="35.6703" y2="58.1731" gradientUnits="userSpaceOnUse">
<stop stop-color="#942900"/>
<stop offset="0.16" stop-color="#AE3514"/>
<stop offset="0.36" stop-color="#C94129"/>
<stop offset="0.57" stop-color="#DD4A39"/>
<stop offset="0.79" stop-color="#E94F42"/>
<stop offset="1" stop-color="#ED5145"/>
</linearGradient>
<linearGradient id="paint1_linear_25_1334" x1="46.9719" y1="35.2203" x2="46.9719" y2="27.3241" gradientUnits="userSpaceOnUse">
<stop stop-color="#FF7A6B"/>
<stop offset="0.2" stop-color="#FD7667"/>
<stop offset="0.39" stop-color="#F96B5B"/>
<stop offset="0.58" stop-color="#F15947"/>
<stop offset="0.77" stop-color="#E63F2C"/>
<stop offset="0.96" stop-color="#D71F08"/>
<stop offset="1" stop-color="#D41700"/>
</linearGradient>
</defs>
</svg>
