<svg width="156" height="85" viewBox="0 0 156 85" fill="none" xmlns="http://www.w3.org/2000/svg">
<path fill-rule="evenodd" clip-rule="evenodd" d="M21.1464 46.1948C21.1464 46.1948 21.1464 51.513 24.9074 55.2798C26.7023 57.0784 28.9894 58.3036 31.4794 58.8004C33.9695 59.2972 36.5507 59.0433 38.8968 58.0709C41.2428 57.0985 43.2482 55.4511 44.6595 53.3372C46.0707 51.2233 46.8244 48.7377 46.8252 46.1948C46.8301 50.0806 46.5151 53.9601 45.8833 57.794C44.8568 63.0876 41.1462 71.9005 33.991 71.9005C26.8359 71.9005 23.9775 62.8464 22.409 58.1068C20.8404 53.3673 21.1464 46.1948 21.1464 46.1948Z" fill="url(#paint0_linear_85_5259)"/>
<path fill-rule="evenodd" clip-rule="evenodd" d="M33.979 20.3734C33.979 20.3734 46.811 21.8405 46.811 46.1947C46.811 70.5489 33.979 71.8989 33.979 71.8989C37.4007 72.017 40.8121 71.4584 44.018 70.255C47.224 69.0516 50.1616 67.2271 52.663 64.8857C56.7846 61.0789 59.9532 55.2074 59.9644 46.1435C59.9756 37.0796 56.8666 31.0784 52.6434 27.367C43.2111 19.1194 33.979 20.3734 33.979 20.3734Z" fill="url(#paint1_linear_85_5259)"/>
<path fill-rule="evenodd" clip-rule="evenodd" d="M31.4764 13.3735C35.5139 13.2536 43.2026 13.1631 46.4881 13.1631C49.7737 13.1631 59.9531 13.5046 59.9531 23.5553V45.5657C59.9531 45.5657 59.6429 26.9357 43.5079 26.9357C27.3729 26.9357 26.9066 13.5067 31.4764 13.3735Z" fill="white"/>
<path fill-rule="evenodd" clip-rule="evenodd" d="M15.6684 64.4138C8 56.2637 8.31161 49.6825 8 46.1969C8 39.2987 24.0272 43.7949 23.3354 46.1969C19.267 60.3012 28.0271 71.9011 33.9791 71.9011C34.171 71.9944 23.3354 72.566 15.6684 64.4138Z" fill="white"/>
<path d="M20.3342 38.3218C23.7908 38.3218 26.593 35.5153 26.593 32.0533C26.593 28.5914 23.7908 25.7849 20.3342 25.7849C16.8776 25.7849 14.0754 28.5914 14.0754 32.0533C14.0754 35.5153 16.8776 38.3218 20.3342 38.3218Z" fill="white"/>
<path fill-rule="evenodd" clip-rule="evenodd" d="M148 33.301C148 30.2938 146.958 28.2775 144.903 26.9618C143.372 25.9869 136.496 25.7632 136.496 25.7632C136.37 25.7591 136.245 25.7802 136.128 25.8255C136.011 25.8707 135.904 25.939 135.814 26.0264C135.724 26.1139 135.652 26.2185 135.603 26.3343C135.554 26.45 135.529 26.5745 135.529 26.7002V61.4073C135.529 64.4146 136.571 66.4309 138.626 67.7466C140.157 68.7214 147.033 68.9452 147.033 68.9452C147.159 68.9493 147.284 68.9281 147.401 68.8829C147.518 68.8377 147.625 68.7693 147.715 68.6819C147.805 68.5945 147.877 68.4898 147.926 68.3741C147.975 68.2583 148 68.1339 148 68.0082V33.301Z" fill="white"/>
<path fill-rule="evenodd" clip-rule="evenodd" d="M115.526 27.2008C113.416 28.5081 112.429 30.5068 112.429 33.498V37.9542C112.44 41.2673 112.453 44.6946 112.354 48.0764C112.255 51.4582 112.079 58.442 111.486 61.9521C110.794 66.036 106.778 74.2611 104.867 76.3553C104.867 77.7733 112.874 76.7655 116.815 74.1811C120.306 71.8857 122.594 68.3644 124.014 63.1002C124.678 60.614 125.21 54.4893 125.217 50.827C125.233 43.4259 125.217 26.6741 125.217 26.6741C125.217 26.5456 125.191 26.4186 125.14 26.3008C125.089 26.183 125.014 26.0769 124.92 25.9893C124.826 25.9016 124.716 25.8342 124.595 25.7912C124.474 25.7482 124.345 25.7305 124.218 25.7392C124.218 25.7392 117.093 26.2224 115.534 27.191L115.526 27.2008Z" fill="white"/>
<path fill-rule="evenodd" clip-rule="evenodd" d="M98.3618 29.9858C99.9426 31.5241 101.133 33.4191 101.833 35.5122C102.649 38.0428 102.982 40.7047 102.813 43.3586L101.953 65.3907C101.936 65.8601 101.764 66.3106 101.464 66.6715C101.164 67.0325 100.753 67.2836 100.295 67.3853C98.5719 67.7689 96.5741 68.1476 94.3634 68.5074C91.9669 68.8882 89.5438 69.0758 87.1173 69.0685C86.4535 69.0685 85.805 69.0573 85.144 69.0327C82.5559 68.9494 79.9839 68.5909 77.4714 67.9632C75.3442 67.4472 73.3348 66.5296 71.5509 65.2596C69.9228 64.0578 68.6314 62.4561 67.8011 60.6091C66.8853 58.4344 66.4927 56.0746 66.6548 53.72C66.6585 51.4094 67.3385 49.1506 68.6105 47.2229C69.7874 45.5638 71.3394 44.207 73.1397 43.2633C75.0093 42.2934 77.0289 41.6468 79.1135 41.3508C80.7944 41.0992 82.4914 40.9709 84.191 40.9671C84.6111 40.9671 85.025 40.9671 85.4276 40.9917L90.2642 41.1824C90.2634 40.3509 90.02 39.5377 89.564 38.8428C89.1121 38.1861 88.5036 37.6529 87.7937 37.2915C87.0222 36.9013 86.198 36.6258 85.3471 36.4737C84.4254 36.3082 83.4931 36.2091 82.5573 36.1771C81.0489 36.1382 79.54 36.2264 78.0463 36.4408C76.7885 36.6109 75.5421 36.8573 74.314 37.1786C73.8307 37.304 73.3186 37.2528 72.8694 37.0344C72.4203 36.8159 72.0636 36.4443 71.8632 35.9863C71.7196 35.663 71.5831 35.3502 71.4605 35.0536C70.9724 33.4955 70.6295 31.8955 70.4361 30.274C70.4137 29.8708 70.4004 29.4409 70.3983 28.9843C70.3956 28.5144 70.5495 28.057 70.8356 27.6845C71.1218 27.3121 71.5238 27.0459 71.978 26.928C74.0401 26.3924 76.1335 25.9853 78.2459 25.7091C80.5373 25.3958 82.8504 25.2706 85.1622 25.3346C87.726 25.4055 90.2661 25.8458 92.7046 26.6419C94.8113 27.3299 96.7422 28.4712 98.3618 29.9858ZM90.1137 59.0381L90.4897 49.35L85.4367 49.1572C85.2666 49.1572 85.0936 49.146 84.9255 49.146C83.3455 49.1055 81.7828 49.4824 80.3943 50.2386C79.7142 50.5888 79.1415 51.117 78.7371 51.767C78.3327 52.417 78.1116 53.1646 78.0974 53.9304C78.0061 54.9355 78.2563 55.942 78.8075 56.7869C79.3057 57.4798 79.9678 58.0379 80.7346 58.4112C81.5041 58.787 82.324 59.0489 83.1686 59.1889C83.9446 59.3259 84.7287 59.4126 85.5158 59.4484C86.2336 59.4583 86.9514 59.4309 87.6663 59.3664C88.3653 59.3239 89.0612 59.2396 89.7502 59.1139L90.1137 59.0381Z" fill="white"/>
<path d="M118.902 20.5018C122.349 20.5018 125.143 17.7032 125.143 14.2509C125.143 10.7986 122.349 8 118.902 8C115.455 8 112.661 10.7986 112.661 14.2509C112.661 17.7032 115.455 20.5018 118.902 20.5018Z" fill="white"/>
<path d="M141.682 20.5018C145.129 20.5018 147.923 17.7032 147.923 14.2509C147.923 10.7986 145.129 8 141.682 8C138.235 8 135.44 10.7986 135.44 14.2509C135.44 17.7032 138.235 20.5018 141.682 20.5018Z" fill="white"/>
<defs>
<linearGradient id="paint0_linear_85_5259" x1="21.7135" y1="55.3203" x2="35.6703" y2="58.1731" gradientUnits="userSpaceOnUse">
<stop stop-color="#942900"/>
<stop offset="0.16" stop-color="#AE3514"/>
<stop offset="0.36" stop-color="#C94129"/>
<stop offset="0.57" stop-color="#DD4A39"/>
<stop offset="0.79" stop-color="#E94F42"/>
<stop offset="1" stop-color="#ED5145"/>
</linearGradient>
<linearGradient id="paint1_linear_85_5259" x1="46.9717" y1="35.2202" x2="46.9717" y2="27.324" gradientUnits="userSpaceOnUse">
<stop stop-color="#FF7A6B"/>
<stop offset="0.2" stop-color="#FD7667"/>
<stop offset="0.39" stop-color="#F96B5B"/>
<stop offset="0.58" stop-color="#F15947"/>
<stop offset="0.77" stop-color="#E63F2C"/>
<stop offset="0.96" stop-color="#D71F08"/>
<stop offset="1" stop-color="#D41700"/>
</linearGradient>
</defs>
</svg>
