<svg width="48" height="48" viewBox="0 0 48 48" fill="none" xmlns="http://www.w3.org/2000/svg">
<path fill-rule="evenodd" clip-rule="evenodd" d="M17.084 25.985C17.1512 27.8264 17.8705 29.5819 19.1107 30.9311C19.7522 31.5812 20.5142 32.097 21.3529 32.4489C22.1916 32.8008 23.0906 32.982 23.9986 32.982C24.9065 32.982 25.8056 32.8008 26.6443 32.4489C27.483 32.097 28.2449 31.5812 28.8865 30.9311C29.5303 30.2829 30.0409 29.5121 30.3888 28.6632C30.7366 27.8143 30.9148 26.9041 30.9132 25.985C30.9169 28.1002 30.7482 30.2121 30.4089 32.2993C29.853 35.1814 27.8538 39.9794 23.9983 39.9794C20.1428 39.9794 18.6014 35.0498 17.7575 32.4694C16.9137 29.8889 17.084 25.985 17.084 25.985Z" fill="url(#paint0_linear_25_1327)"/>
<path fill-rule="evenodd" clip-rule="evenodd" d="M23.9984 11.9254C23.9984 11.9254 30.9126 12.7244 30.9126 25.9873C30.9126 39.2502 24.3558 39.9794 24.3558 39.9794C24.3558 39.9794 29.4037 40.5123 34.0661 36.1623C36.2871 34.0898 37.9944 30.8891 38 25.9561C38.0056 21.0231 36.3314 17.7526 34.0554 15.734C28.9734 11.2428 23.9984 11.9254 23.9984 11.9254Z" fill="url(#paint1_linear_25_1327)"/>
<path fill-rule="evenodd" clip-rule="evenodd" d="M22.6501 8.12077C24.8258 8.04933 28.9682 8 30.7433 8C32.5184 8 37.9988 8.18598 37.9988 13.6582V25.6414C37.9988 25.6414 37.8307 15.4981 29.1375 15.4981C20.4442 15.4981 20.1859 8.18711 22.6501 8.12077Z" fill="#355070"/>
<path fill-rule="evenodd" clip-rule="evenodd" d="M14.1318 35.9031C10 31.4657 10.1681 27.8828 10 25.985C10 22.2297 18.6361 24.6775 18.2641 25.985C16.0716 33.664 20.7939 39.9794 23.9983 39.9794C22.1657 40.0191 20.3444 39.6778 18.6473 38.9767C16.9502 38.2755 15.4133 37.2294 14.1318 35.9031Z" fill="#355070"/>
<path d="M16.6465 21.6973C18.5091 21.6973 20.019 20.1693 20.019 18.2844C20.019 16.3996 18.5091 14.8716 16.6465 14.8716C14.7839 14.8716 13.2739 16.3996 13.2739 18.2844C13.2739 20.1693 14.7839 21.6973 16.6465 21.6973Z" fill="#355070"/>
<defs>
<linearGradient id="paint0_linear_25_1327" x1="17.3883" y1="30.953" x2="24.9116" y2="32.4606" gradientUnits="userSpaceOnUse">
<stop stop-color="#942900"/>
<stop offset="0.16" stop-color="#AE3514"/>
<stop offset="0.36" stop-color="#C94129"/>
<stop offset="0.57" stop-color="#DD4A39"/>
<stop offset="0.79" stop-color="#E94F42"/>
<stop offset="1" stop-color="#ED5145"/>
</linearGradient>
<linearGradient id="paint1_linear_25_1327" x1="30.9992" y1="20.0126" x2="30.9992" y2="15.7115" gradientUnits="userSpaceOnUse">
<stop stop-color="#FF7A6B"/>
<stop offset="0.2" stop-color="#FD7667"/>
<stop offset="0.39" stop-color="#F96B5B"/>
<stop offset="0.58" stop-color="#F15947"/>
<stop offset="0.77" stop-color="#E63F2C"/>
<stop offset="0.96" stop-color="#D71F08"/>
<stop offset="1" stop-color="#D41700"/>
</linearGradient>
</defs>
</svg>
